<svg width="204" height="211" viewBox="0 0 204 211" fill="none" xmlns="http://www.w3.org/2000/svg">
<path d="M169.503 148.301C145.923 185.491 96.3952 196.585 59.2052 173.006C22.008 149.424 10.9139 99.8958 34.4927 62.7046C58.0755 25.5075 107.605 14.4133 144.802 37.9961C181.992 61.5753 193.087 111.104 169.503 148.301ZM154.686 72.5459C149.914 64.8992 143.425 58.1583 135.29 53.0006C106.223 34.574 67.9235 43.153 49.4969 72.2171C31.0706 101.282 39.6496 139.582 68.7137 158.009C76.7323 163.092 85.4617 166.08 94.2835 167.177C93.4506 166.719 92.6178 166.245 91.8007 165.728C65.6488 149.147 57.8367 114.265 74.4208 88.1054C91.0034 61.9519 125.884 54.1358 152.037 70.7168C152.953 71.2966 153.829 71.9151 154.686 72.5459ZM154.425 138.827C165.852 120.801 160.559 97.1545 142.525 85.7213C124.499 74.2925 100.844 79.5856 89.4167 97.612C85.3354 104.046 83.5039 111.188 83.5316 118.25C88.497 111.705 95.1281 107.551 102.028 106.032L103.575 105.739C111.86 104.384 120.015 106.497 126.677 110.72C133.336 114.942 138.744 121.429 141.053 129.501L141.443 131.026C143.007 137.909 142.079 145.675 138.274 152.955C144.672 149.97 150.344 145.259 154.425 138.827ZM121.74 146.148C124.767 141.375 124.921 137.726 123.962 134.394L123.958 134.391C122.999 131.04 120.508 127.844 117.165 125.724C113.822 123.606 109.882 122.722 106.437 123.281L105.158 123.548C102.201 124.308 99.3831 126.121 96.7346 130.294C93.7072 135.071 93.569 138.728 94.5282 142.062L94.7255 142.689C95.8031 145.813 98.1793 148.736 101.313 150.723C104.656 152.843 108.611 153.735 112.053 153.172L112.057 153.175C115.479 152.619 118.712 150.926 121.74 146.148Z" fill="#00A4BD" stroke="#00A4BD" stroke-width="0.8"/>
</svg>
